<?xml version="1.0" standalone="no"?>
<svg xmlns:xlink="http://www.w3.org/1999/xlink" id="wave" style="transform:rotate(0deg); transition: 0.3s" viewBox="0 0 1440 490" version="1.1" xmlns="http://www.w3.org/2000/svg"><defs><linearGradient id="sw-gradient-0" x1="0" x2="0" y1="1" y2="0"><stop stop-color="rgba(99, 18, 96, 1)" offset="0%"/><stop stop-color="rgba(195.263, 30.486, 189.16, 1)" offset="100%"/></linearGradient></defs><path style="transform:translate(0, 0px); opacity:1" fill="url(#sw-gradient-0)" d="M0,196L26.7,163.3C53.3,131,107,65,160,98C213.3,131,267,261,320,318.5C373.3,376,427,359,480,318.5C533.3,278,587,212,640,163.3C693.3,114,747,82,800,89.8C853.3,98,907,147,960,196C1013.3,245,1067,294,1120,261.3C1173.3,229,1227,114,1280,81.7C1333.3,49,1387,98,1440,114.3C1493.3,131,1547,114,1600,138.8C1653.3,163,1707,229,1760,228.7C1813.3,229,1867,163,1920,171.5C1973.3,180,2027,261,2080,285.8C2133.3,310,2187,278,2240,261.3C2293.3,245,2347,245,2400,220.5C2453.3,196,2507,147,2560,114.3C2613.3,82,2667,65,2720,57.2C2773.3,49,2827,49,2880,57.2C2933.3,65,2987,82,3040,106.2C3093.3,131,3147,163,3200,179.7C3253.3,196,3307,196,3360,212.3C3413.3,229,3467,261,3520,294C3573.3,327,3627,359,3680,326.7C3733.3,294,3787,196,3813,147L3840,98L3840,490L3813.3,490C3786.7,490,3733,490,3680,490C3626.7,490,3573,490,3520,490C3466.7,490,3413,490,3360,490C3306.7,490,3253,490,3200,490C3146.7,490,3093,490,3040,490C2986.7,490,2933,490,2880,490C2826.7,490,2773,490,2720,490C2666.7,490,2613,490,2560,490C2506.7,490,2453,490,2400,490C2346.7,490,2293,490,2240,490C2186.7,490,2133,490,2080,490C2026.7,490,1973,490,1920,490C1866.7,490,1813,490,1760,490C1706.7,490,1653,490,1600,490C1546.7,490,1493,490,1440,490C1386.7,490,1333,490,1280,490C1226.7,490,1173,490,1120,490C1066.7,490,1013,490,960,490C906.7,490,853,490,800,490C746.7,490,693,490,640,490C586.7,490,533,490,480,490C426.7,490,373,490,320,490C266.7,490,213,490,160,490C106.7,490,53,490,27,490L0,490Z"/></svg>